<svg xmlns="http://www.w3.org/2000/svg" xmlns:xlink="http://www.w3.org/1999/xlink" width="56" height="63"><defs><linearGradient id="b" x1="0%" x2="100%" y1="50%" y2="50%"><stop offset="0%" stop-color="#5B79A2"/><stop offset="100%" stop-color="#2E4469"/></linearGradient><linearGradient id="d" x1="78.531%" x2="0%" y1="15.062%" y2="100%"><stop offset="0%" stop-color="#637BFF" stop-opacity="0"/><stop offset="100%" stop-color="#21C8F6"/></linearGradient><linearGradient id="e" x1="94.118%" x2="50.529%" y1="34.137%" y2="65.861%"><stop offset="0%" stop-color="#5B79A2"/><stop offset="100%" stop-color="#2E4469"/></linearGradient><linearGradient id="f" x1="17.242%" x2="54.957%" y1="26.931%" y2="65.863%"><stop offset="0%" stop-color="#00BAFF"/><stop offset="100%" stop-color="#83234B" stop-opacity="0"/></linearGradient><linearGradient id="g" x1="-17.84%" x2="92.395%" y1="34.137%" y2="68.637%"><stop offset="0%" stop-color="#00BAFF"/><stop offset="100%" stop-color="#83234B" stop-opacity="0"/></linearGradient><linearGradient id="k" x1=".008%" x2="99.992%" y1="50.124%" y2="49.876%"><stop offset="0%" stop-color="#6F90BC"/><stop offset="100%" stop-color="#2E4469"/></linearGradient><linearGradient id="l" x1="38.02%" x2="80.028%" y1="51.115%" y2="46.641%"><stop offset="0%" stop-color="#1B283E"/><stop offset="100%" stop-color="#688AB8"/></linearGradient><linearGradient id="n" x1="-2.626%" x2="39.996%" y1="46.456%" y2="53.44%"><stop offset="0%" stop-color="#00BAFF"/><stop offset="100%" stop-color="#83234B" stop-opacity="0"/></linearGradient><linearGradient id="o" x1="100%" x2="0%" y1="50%" y2="50%"><stop offset="0%" stop-color="#00C9FF"/><stop offset="100%" stop-color="#2B7DBD" stop-opacity="0"/></linearGradient><linearGradient id="p" x1="100%" x2="0%" y1="50%" y2="50%"><stop offset="0%" stop-color="#00C9FF"/><stop offset="100%" stop-color="#2B7DBD" stop-opacity="0"/></linearGradient><linearGradient id="q" x1="75.874%" x2="92.229%" y1="34.514%" y2="95.76%"><stop offset="0%" stop-color="#5B79A2"/><stop offset="100%" stop-color="#2E4469"/></linearGradient><linearGradient id="z" x1="77.322%" x2="6.752%" y1="0%" y2="146.499%"><stop offset="0%" stop-color="#85A1C6"/><stop offset="100%" stop-color="#1B283E"/></linearGradient><linearGradient id="A" x1="-17.071%" x2="167.986%" y1="-26.592%" y2="175.689%"><stop offset="0%" stop-color="#00BAFF"/><stop offset="100%" stop-color="#83234B" stop-opacity="0"/></linearGradient><linearGradient id="D" x1="8.307%" x2="109.293%" y1="21.46%" y2="103.145%"><stop offset="0%" stop-color="#233249"/><stop offset="100%" stop-color="#0F1723"/></linearGradient><linearGradient id="J" x1="154.902%" x2="24.379%" y1="138.188%" y2="14.184%"><stop offset="0%" stop-color="#76E1FF"/><stop offset="100%" stop-color="#637BFF" stop-opacity="0"/></linearGradient><linearGradient id="K" x1="13.96%" x2="105.629%" y1=".616%" y2="98.781%"><stop offset="0%" stop-color="#587CB9"/><stop offset="100%" stop-color="#2E4469" stop-opacity="0"/></linearGradient><linearGradient id="M" x1="98.645%" x2="1.4%" y1="50.843%" y2="48.979%"><stop offset="0%" stop-color="#21C8F6"/><stop offset="100%" stop-color="#637BFF"/></linearGradient><linearGradient id="R" x1="98.741%" x2="1.259%" y1="48.741%" y2="48.741%"><stop offset="0%" stop-color="#21C8F6"/><stop offset="100%" stop-color="#637BFF"/></linearGradient><linearGradient id="S" x1="98.741%" x2="1.259%" y1="48.741%" y2="48.741%"><stop offset="0%" stop-color="#21C8F6"/><stop offset="100%" stop-color="#637BFF"/></linearGradient><filter id="i" width="100%" height="100%" x="0%" y="0%" filterUnits="objectBoundingBox"><feGaussianBlur in="SourceGraphic"/></filter><filter id="j" width="100%" height="100%" x="0%" y="0%" filterUnits="objectBoundingBox"><feGaussianBlur in="SourceGraphic"/></filter><filter id="s" width="131.9%" height="239.2%" x="-16%" y="-69.6%" filterUnits="objectBoundingBox"><feGaussianBlur in="SourceGraphic" stdDeviation="1.255"/></filter><filter id="t" width="144%" height="144.2%" x="-22%" y="-22.1%" filterUnits="objectBoundingBox"><feGaussianBlur in="SourceGraphic" stdDeviation="2.151"/></filter><filter id="u" width="179.1%" height="179.5%" x="-39.6%" y="-39.8%" filterUnits="objectBoundingBox"><feGaussianBlur in="SourceGraphic" stdDeviation="2.151"/></filter><filter id="w" width="149.8%" height="149.3%" x="-24.9%" y="-24.6%" filterUnits="objectBoundingBox"><feOffset in="SourceAlpha" result="shadowOffsetOuter1"/><feGaussianBlur in="shadowOffsetOuter1" result="shadowBlurOuter1" stdDeviation=".5"/><feColorMatrix in="shadowBlurOuter1" values="0 0 0 0 0.951002038 0 0 0 0 0.370524746 0 0 0 0 0.61045536 0 0 0 1 0"/></filter><filter id="F" width="405.7%" height="711.4%" x="-152.8%" y="-258.6%" filterUnits="objectBoundingBox"><feOffset dy="1" in="SourceAlpha" result="shadowOffsetOuter1"/><feGaussianBlur in="shadowOffsetOuter1" result="shadowBlurOuter1" stdDeviation="2"/><feColorMatrix in="shadowBlurOuter1" values="0 0 0 0 0.137254902 0 0 0 0 0.788235294 0 0 0 0 0.968627451 0 0 0 1 0"/></filter><filter id="N" width="147.1%" height="279%" x="-23.6%" y="-75.4%" filterUnits="objectBoundingBox"><feOffset dy="1" in="SourceAlpha" result="shadowOffsetOuter1"/><feGaussianBlur in="shadowOffsetOuter1" result="shadowBlurOuter1" stdDeviation="2"/><feColorMatrix in="shadowBlurOuter1" values="0 0 0 0 0.137254902 0 0 0 0 0.788235294 0 0 0 0 0.968627451 0 0 0 1 0"/></filter><radialGradient id="h" cx="52.436%" cy="42.955%" r="36.114%" fx="52.436%" fy="42.955%" gradientTransform="matrix(-1 0 0 -.21028 1.049 .52)"><stop offset="0%" stop-color="#172743"/><stop offset="100%" stop-opacity="0"/></radialGradient><radialGradient id="m" cx="12.668%" cy="-20.667%" r="288.299%" fx="12.668%" fy="-20.667%" gradientTransform="matrix(.15715 .54202 -.1113 .92285 .084 -.085)"><stop offset="0%" stop-color="#00BAFF"/><stop offset="100%" stop-color="#83234B" stop-opacity="0"/></radialGradient><radialGradient id="r" cx="52.436%" cy="42.955%" r="157.336%" fx="52.436%" fy="42.955%" gradientTransform="matrix(-.22953 0 0 -.21136 .645 .52)"><stop offset="0%" stop-color="#172743"/><stop offset="100%" stop-opacity="0"/></radialGradient><radialGradient id="v" cx="50%" cy="50%" r="68.353%" fx="50%" fy="50%" gradientTransform="matrix(0 1 -.9947 0 .997 0)"><stop offset="0%" stop-color="#21C8F6"/><stop offset="100%" stop-color="#4BDEFF"/></radialGradient><radialGradient id="y" cx="50%" cy="50%" r="102.912%" fx="50%" fy="50%" gradientTransform="matrix(0 .9893 -1.93068 0 1.465 .005)"><stop offset="0%" stop-color="#FFF"/><stop offset="100%" stop-color="#C42E6C"/></radialGradient><radialGradient id="H" cx="50%" cy="50%" r="136.8%" fx="50%" fy="50%" gradientTransform="matrix(.5 0 0 1 .25 0)"><stop offset="0%" stop-color="#21C8F6"/><stop offset="100%" stop-color="#4BDEFF"/></radialGradient><radialGradient id="P" cx="50%" cy="50%" r="257.024%" fx="50%" fy="50%" gradientTransform="matrix(.26612 0 0 1 .367 0)"><stop offset="0%" stop-color="#21C8F6"/><stop offset="100%" stop-color="#4BDEFF"/></radialGradient><path id="x" d="M6.025 2.652V1.475l-.436.25-.603.345v1.177l1.04-.595zM4.78 4.782V3.604l-.593.337-1.693.96v1.19L4.78 4.78zM0 .773v4.009L2.285 6.09V4.9l-1.194-.67-.012-.01-.01-.007-.008-.011-.008-.01c-.003-.004-.004-.01-.006-.013l-.005-.012-.002-.015-.001-.012V1.368l-.603-.345L0 .773zM1.143 0 .104.595l1.039.594L2.18.595 1.143 0zm.54 3.711.602-.345V.773l-.436.25-.602.345v2.593l.436-.25zm3.2-3.01-1.039.595 1.039.595 1.038-.595L4.883.702zM4.779 2.07l-.603-.345-.436-.25v1.177l.602.345.437.25V2.07zm-2.39 2.653 1.523-.865.762-.432-1.038-.595-1.195.685-1.089.623 1.037.584z"/><path id="B" d="M4.18 0h22.14a4.18 4.18 0 0 1 4.18 4.18v17.757a4.179 4.179 0 0 1-2.661 3.895c-2.637 1.028-6.659 1.543-12.065 1.543-5.731 0-10.097-.578-13.096-1.734A4.18 4.18 0 0 1 0 21.74V4.18A4.181 4.181 0 0 1 4.18 0z"/><path id="C" d="M4.18 0h22.14a4.18 4.18 0 0 1 4.18 4.18v17.757a4.179 4.179 0 0 1-2.661 3.895c-2.637 1.028-6.659 1.543-12.065 1.543-5.731 0-10.097-.578-13.096-1.734A4.18 4.18 0 0 1 0 21.74V4.18A4.181 4.181 0 0 1 4.18 0z"/><path id="G" d="M17.795 23.852c-.76-.001-1.482-.374-1.983-1.023a.728.728 0 0 1 .056-.94.543.543 0 0 1 .832.066c.276.358.675.564 1.093.564.42.001.817-.204 1.093-.561a.542.542 0 0 1 .83-.064.728.728 0 0 1 .06.94c-.5.648-1.221 1.019-1.98 1.018z"/><path id="I" d="M4.18 0h22.14a4.18 4.18 0 0 1 4.18 4.18v17.757a4.179 4.179 0 0 1-2.661 3.895c-2.637 1.028-6.659 1.543-12.065 1.543-5.731 0-10.097-.578-13.096-1.734A4.18 4.18 0 0 1 0 21.74V4.18A4.181 4.181 0 0 1 4.18 0z"/><path id="O" d="m13.21 12.932 20.574 1.188a2.724 2.724 0 0 1 2.563 2.877l-.005.073a2.875 2.875 0 0 1-3.03 2.628l-10.485-.605-10.089-.583a2.725 2.725 0 0 1-2.563-2.877l.005-.073a2.875 2.875 0 0 1 3.03-2.628z"/><ellipse id="Q" cx="8.743" cy="8.705" rx="8.743" ry="8.705"/><ellipse id="U" cx="8.743" cy="8.705" rx="8.743" ry="8.705"/><rect id="a" width="55.664" height="55.664" x="0" y="0" rx="13.012"/></defs><g fill="none" fill-rule="evenodd"><g transform="translate(0 6.534)"><mask id="c" fill="#fff"><use xlink:href="#a"/></mask><use fill="#000" fill-opacity=".01" xlink:href="#a"/><path fill="url(#b)" d="M0 0h55.664v55.664H0z" mask="url(#c)"/><path fill="url(#d)" d="M0 0h55.664v55.664H0z" mask="url(#c)"/><g mask="url(#c)"><g transform="translate(-13.328 20.149)"><path fill="#1B283E" d="m15.71 18.323 50.98-.118a5.478 5.478 0 0 1 5.448 6.16L68.893 50.18a10.954 10.954 0 0 1-10.85 9.588l-33.093.056a10.956 10.956 0 0 1-10.858-9.367l-3.789-25.862a5.478 5.478 0 0 1 5.406-6.272z"/><path fill="url(#e)" d="m14.237 18.347 53.98-.937a5.477 5.477 0 0 1 5.497 6.385l-3.59 21.336a10.955 10.955 0 0 1-10.589 9.135l-35.224.69a10.956 10.956 0 0 1-10.943-8.736l-4.4-21.288a5.477 5.477 0 0 1 5.269-6.585z" transform="rotate(1 41.219 36.214)"/><path fill="url(#f)" fill-rule="nonzero" d="m14.237 18.347 53.98-.937a5.477 5.477 0 0 1 5.497 6.385l-3.59 21.336a10.955 10.955 0 0 1-10.589 9.135l-35.224.69a10.956 10.956 0 0 1-10.943-8.736l-4.4-21.288a5.477 5.477 0 0 1 5.269-6.585z" transform="rotate(1 41.219 36.214)"/><path fill="url(#g)" fill-rule="nonzero" d="m14.237 18.347 53.98-.937a5.477 5.477 0 0 1 5.497 6.385l-3.59 21.336a10.955 10.955 0 0 1-10.589 9.135l-35.224.69a10.956 10.956 0 0 1-10.943-8.736l-4.4-21.288a5.477 5.477 0 0 1 5.269-6.585z" transform="rotate(1 41.219 36.214)"/><ellipse cx="4.244" cy="4.222" fill="url(#h)" filter="url(#i)" opacity=".899" rx="3.607" ry="3.625" transform="rotate(-80 53.682 -23.73)"/><ellipse cx="4.244" cy="4.222" fill="url(#h)" filter="url(#j)" opacity=".899" rx="3.607" ry="3.625" transform="scale(-1 1) rotate(-80 11.559 26.018)"/><path fill="#1B283E" d="m25.585 36.16 31.446.004a.838.838 0 1 1 0 1.674l-15.973-.001-15.473-.002a.837.837 0 0 1 0-1.674z"/><path fill="url(#k)" d="m13.659 18.179 56.1-.727a4.123 4.123 0 0 1 3.655 6.129l-.38.68a10.953 10.953 0 0 1-9.428 5.622l-43.395.562a10.956 10.956 0 0 1-9.481-5.229l-.501-.817a4.084 4.084 0 0 1 3.43-6.22z" transform="rotate(1 41.676 23.943)"/><path fill="url(#l)" d="m13.659 18.179 56.1-.727a4.123 4.123 0 0 1 3.655 6.129l-.38.68a10.953 10.953 0 0 1-9.428 5.622l-43.395.562a10.956 10.956 0 0 1-9.481-5.229l-.501-.817a4.084 4.084 0 0 1 3.43-6.22z" opacity=".504" transform="rotate(1 41.676 23.943)"/><path fill="url(#m)" fill-rule="nonzero" d="m13.659 18.179 56.1-.727a4.123 4.123 0 0 1 3.655 6.129l-.38.68a10.953 10.953 0 0 1-9.428 5.622l-43.395.562a10.956 10.956 0 0 1-9.481-5.229l-.501-.817a4.084 4.084 0 0 1 3.43-6.22z" transform="rotate(1 41.676 23.943)"/><path fill="url(#n)" fill-rule="nonzero" d="m13.659 18.179 56.1-.727a4.123 4.123 0 0 1 3.655 6.129l-.38.68a10.953 10.953 0 0 1-9.428 5.622l-43.395.562a10.956 10.956 0 0 1-9.481-5.229l-.501-.817a4.084 4.084 0 0 1 3.43-6.22z" transform="rotate(1 41.676 23.943)"/><path stroke="url(#o)" stroke-linecap="round" stroke-linejoin="round" stroke-width=".659" d="M41.866 30.498h-22.58"/><path stroke="url(#p)" stroke-linecap="round" stroke-linejoin="round" stroke-width=".659" d="M58.578 30.498H42.022" transform="matrix(-1 0 0 1 100.6 0)"/><path fill="#000" d="m36.734 18.37 10.778.002c1.52 0 2.972.632 4.008 1.744l1.635 1.755a2.08 2.08 0 0 1-1.522 3.499l-19.02-.001a2.081 2.081 0 0 1-1.521-3.5l1.634-1.754a5.475 5.475 0 0 1 4.008-1.744z" opacity=".535"/><path fill="url(#q)" d="M37.673 5.886h9.45a4.26 4.26 0 0 1 4.26 4.26v10.496a2.435 2.435 0 0 1-2.435 2.435h-13.1a2.435 2.435 0 0 1-2.435-2.435V10.146a4.26 4.26 0 0 1 4.26-4.26z"/><ellipse cx="42.206" cy="14.849" fill="#1B283E" rx="6.345" ry="6.311"/><ellipse cx="41.519" cy="7.756" fill="url(#r)" filter="url(#s)" opacity=".65" rx="11.783" ry="2.705"/><g transform="translate(27.151 .05)"><ellipse fill="#92BAE9" opacity=".136" style="mix-blend-mode:overlay" cx="14.684" cy="14.605" filter="url(#t)" rx="14.684" ry="14.605"/><ellipse cx="14.684" cy="14.605" fill="#328AF1" filter="url(#u)" opacity=".842" rx="8.158" ry="8.114"/><ellipse cx="14.858" cy="14.939" fill="url(#v)" rx="4.351" ry="4.328" transform="scale(1 -1) rotate(4 442.66 0)"/><g transform="translate(12.15 12.084)" style="mix-blend-mode:luminosity"><use fill="#000" filter="url(#w)" xlink:href="#x"/><use fill="url(#y)" xlink:href="#x"/></g><path fill="#FFF" fill-opacity=".547" d="M15.165 10.8c1.159 0 2.198.511 2.901 1.319a3.833 3.833 0 0 0-1.847-.47c-2.119 0-3.836 1.709-3.836 3.816 0 .955.352 1.828.935 2.497a3.812 3.812 0 0 1-1.99-3.346c0-2.107 1.718-3.816 3.837-3.816z" style="mix-blend-mode:lighten" opacity=".5" transform="scale(1 -1) rotate(-84 -1.275 0)"/></g></g></g></g><path fill="url(#z)" d="M13.624 0h19.69a8.959 8.959 0 0 1 8.958 8.959v20.726c0 5.938-4.813 10.751-10.75 10.751H15.416c-5.937 0-10.75-4.813-10.75-10.75V8.958A8.956 8.956 0 0 1 13.623 0z" transform="rotate(-5 52.744 -24.135)"/><path fill="url(#A)" fill-rule="nonzero" d="M13.624 0h19.69a8.959 8.959 0 0 1 8.958 8.959v20.726c0 5.938-4.813 10.751-10.75 10.751H15.416c-5.937 0-10.75-4.813-10.75-10.75V8.958A8.956 8.956 0 0 1 13.623 0z" transform="rotate(-5 52.744 -24.135)"/><path fill="#222" fill-opacity=".468" d="M9.062 28.876c.517 5.914 5.732 10.29 11.646 9.772l16.711-1.462c5.915-.517 10.29-5.732 9.772-11.646l.423 4.836c.518 5.915-3.857 11.13-9.772 11.647l-16.71 1.462c-5.915.517-11.13-3.858-11.647-9.773z" opacity=".405"/><g transform="rotate(-5 117.46 -122.835)"><use fill="#1B283E" xlink:href="#B"/><mask id="E" fill="#fff"><use xlink:href="#C"/></mask><use fill="url(#D)" fill-rule="nonzero" xlink:href="#C"/><g fill-rule="nonzero" mask="url(#E)" transform="rotate(-7 17.793 22.789)"><use fill="#000" filter="url(#F)" xlink:href="#G"/><use fill="url(#H)" xlink:href="#G"/></g><mask id="L" fill="#fff"><use xlink:href="#I"/></mask><path stroke="url(#J)" stroke-width=".638" d="M26.32.32c1.066 0 2.032.431 2.73 1.13a3.845 3.845 0 0 1 1.132 2.73v17.757a3.858 3.858 0 0 1-2.459 3.598c-2.612 1.018-6.596 1.52-11.949 1.52-5.68 0-10.008-.566-12.982-1.712A3.859 3.859 0 0 1 .319 21.74V4.18c0-1.066.432-2.031 1.131-2.73A3.85 3.85 0 0 1 4.18.32z"/><ellipse cx="8.587" cy="5.114" fill="url(#K)" mask="url(#L)" opacity=".778" rx="16.877" ry="17.147"/></g><path fill="url(#M)" d="m13.21 12.932 20.574 1.188a2.724 2.724 0 0 1 2.563 2.877l-.005.073a2.875 2.875 0 0 1-3.03 2.628l-10.485-.605-10.089-.583a2.725 2.725 0 0 1-2.563-2.877l.005-.073a2.875 2.875 0 0 1 3.03-2.628z" transform="rotate(-9 40.427 -5.587)"/><g fill-rule="nonzero" transform="rotate(-9 40.427 -5.587)"><use fill="#000" filter="url(#N)" xlink:href="#O"/><use fill="url(#P)" xlink:href="#O"/></g><path d="m30.068 6.364-.947.083a.478.478 0 0 1-.513-.439.476.476 0 0 1 .429-.519l.947-.083a.477.477 0 0 1 .512.437.477.477 0 0 1-.428.521zm1.655-1.473-.949.083c-.259.022-.488-.174-.51-.439s.166-.498.426-.52l.949-.084c.259-.022.489.174.512.44s-.17.497-.428.52zm4.952.895-5.191.455a.478.478 0 0 1-.516-.44.477.477 0 0 1 .432-.519l5.188-.454a.477.477 0 0 1 .515.437.478.478 0 0 1-.431.522h.003zm1.633-1.472-5.15.451c-.273.024-.512-.171-.535-.436s.178-.5.45-.523l5.15-.45c.273-.025.512.171.535.436s-.178.499-.45.522z" fill="#243552"/><g transform="rotate(-6 132.77 -55.623)"><mask id="T" fill="#fff"><use xlink:href="#Q"/></mask><use fill="url(#R)" opacity=".157" xlink:href="#Q"/><path fill="url(#S)" d="m8.32.933-6.623 12.62 5.252 3.321 6.694-14.17z" mask="url(#T)" opacity=".2"/></g><g transform="rotate(-6 121.443 -271.745)"><mask id="V" fill="#fff"><use xlink:href="#U"/></mask><use fill="url(#R)" opacity=".157" xlink:href="#U"/><path fill="url(#S)" d="m8.274.933-6.623 12.62 5.252 3.321 6.694-14.17z" mask="url(#V)" opacity=".2"/></g><path fill="#1B283E" stroke="#1B283E" stroke-width=".619" d="M39.349 27.155c-4.444.467-8.422-2.731-8.886-7.144-.463-4.412 2.763-8.368 7.206-8.835s8.422 2.731 8.886 7.144c.464 4.413-2.763 8.368-7.206 8.835zm-22.466 2.36c-4.444.468-8.422-2.73-8.886-7.142-.464-4.413 2.763-8.369 7.206-8.836s8.422 2.732 8.886 7.144c.463 4.413-2.763 8.368-7.206 8.835zm29.614-16.143c-.752-.7-2.134-1.564-2.958-2.053a9.167 9.167 0 0 0-.653-.381l-.015-.008a9.364 9.364 0 0 0-5.334-1.012 9.37 9.37 0 0 0-6.31 3.413c-.737.843-1.353 1.747-1.996 2.636-.814 1.126-1.412.678-2.334.775s-1.414.66-2.444-.273c-.813-.736-1.604-1.491-2.5-2.163a9.437 9.437 0 0 0-6.911-2.024c-1.913.201-3.745.974-5.036 2.103l.016.007c-.194.161-.367.33-.547.507-.705.65-1.909 1.785-2.5 2.626-.88 1.249-3.052 1.554-3.052 1.554l.248 2.365s1.298-.213 1.773.238c.28.267.698 1.646 1.291 3.074.19.512.434.998.705 1.46.256.46.544.882.857 1.22l.003-.004a9.372 9.372 0 0 0 8.214 3.343 9.367 9.367 0 0 0 7.912-6.326l.007-.01.018-.038c.55-1.197.899-4.353 1.152-4.877.255-.527 1.018-.647 1.018-.647s.772-.042 1.132.421c.356.46 1.353 3.475 2.14 4.532l.026.032.007.01a9.37 9.37 0 0 0 9.055 4.542 9.371 9.371 0 0 0 7.34-4.978v.003c.235-.396.424-.867.58-1.37a9.186 9.186 0 0 0 .375-1.574c.285-1.52.383-2.954.601-3.273.37-.54 1.643-.596 1.643-.596l-.249-2.365s-2.155.15-3.274-.89z"/><path fill="#111B2C" stroke="#111B2C" stroke-width=".569" d="M39.349 27.155c-4.444.467-8.422-2.731-8.886-7.144-.463-4.412 2.763-8.368 7.206-8.835s8.422 2.731 8.886 7.144c.464 4.413-2.763 8.368-7.206 8.835zm-22.466 2.36c-4.444.468-8.422-2.73-8.886-7.142-.464-4.413 2.763-8.369 7.206-8.836s8.422 2.732 8.886 7.144c.463 4.413-2.763 8.368-7.206 8.835zm29.614-16.143c-.752-.7-2.134-1.564-2.958-2.053a9.167 9.167 0 0 0-.653-.381l-.015-.008a9.364 9.364 0 0 0-5.334-1.012 9.37 9.37 0 0 0-6.31 3.413c-.737.843-1.353 1.747-1.996 2.636-.814 1.126-1.412.678-2.334.775s-1.414.66-2.444-.273c-.813-.736-1.604-1.491-2.5-2.163a9.437 9.437 0 0 0-6.911-2.024c-1.913.201-3.745.974-5.036 2.103l.016.007c-.194.161-.367.33-.547.507-.705.65-1.909 1.785-2.5 2.626-.88 1.249-3.052 1.554-3.052 1.554l.248 2.365s1.298-.213 1.773.238c.28.267.698 1.646 1.291 3.074.19.512.434.998.705 1.46.256.46.544.882.857 1.22l.003-.004a9.372 9.372 0 0 0 8.214 3.343 9.367 9.367 0 0 0 7.912-6.326l.007-.01.018-.038c.55-1.197.899-4.353 1.152-4.877.255-.527 1.018-.647 1.018-.647s.772-.042 1.132.421c.356.46 1.353 3.475 2.14 4.532l.026.032.007.01a9.37 9.37 0 0 0 9.055 4.542 9.371 9.371 0 0 0 7.34-4.978v.003c.235-.396.424-.867.58-1.37a9.186 9.186 0 0 0 .375-1.574c.285-1.52.383-2.954.601-3.273.37-.54 1.643-.596 1.643-.596l-.249-2.365s-2.155.15-3.274-.89z"/></g></svg>