<svg xmlns="http://www.w3.org/2000/svg" xmlns:xlink="http://www.w3.org/1999/xlink" width="35" height="29"><defs><linearGradient id="a" x1="77.322%" x2="6.752%" y1="0%" y2="146.499%"><stop offset="0%" stop-color="#85A1C6"/><stop offset="100%" stop-color="#1B283E"/></linearGradient><linearGradient id="b" x1="-17.071%" x2="167.986%" y1="-26.592%" y2="175.689%"><stop offset="0%" stop-color="#00BAFF"/><stop offset="100%" stop-color="#83234B" stop-opacity="0"/></linearGradient><linearGradient id="e" x1="8.307%" x2="109.293%" y1="21.46%" y2="103.145%"><stop offset="0%" stop-color="#233249"/><stop offset="100%" stop-color="#0F1723"/></linearGradient><linearGradient id="k" x1="154.902%" x2="24.379%" y1="138.188%" y2="14.184%"><stop offset="0%" stop-color="#76E1FF"/><stop offset="100%" stop-color="#637BFF" stop-opacity="0"/></linearGradient><linearGradient id="l" x1="13.96%" x2="105.629%" y1=".616%" y2="98.781%"><stop offset="0%" stop-color="#587CB9"/><stop offset="100%" stop-color="#2E4469" stop-opacity="0"/></linearGradient><linearGradient id="n" x1="98.645%" x2="1.4%" y1="50.843%" y2="48.979%"><stop offset="0%" stop-color="#21C8F6"/><stop offset="100%" stop-color="#637BFF"/></linearGradient><linearGradient id="s" x1="98.741%" x2="1.259%" y1="48.741%" y2="48.741%"><stop offset="0%" stop-color="#21C8F6"/><stop offset="100%" stop-color="#637BFF"/></linearGradient><linearGradient id="t" x1="98.741%" x2="1.259%" y1="48.741%" y2="48.741%"><stop offset="0%" stop-color="#21C8F6"/><stop offset="100%" stop-color="#637BFF"/></linearGradient><path id="c" d="M2.509 0h13.283a2.51 2.51 0 0 1 2.509 2.509v10.653a2.508 2.508 0 0 1-1.598 2.337c-1.582.617-3.995.926-7.238.926-3.44 0-6.059-.347-7.858-1.04A2.51 2.51 0 0 1 0 13.044V2.509A2.509 2.509 0 0 1 2.509 0z"/><path id="d" d="M2.509 0h13.283a2.51 2.51 0 0 1 2.509 2.509v10.653a2.508 2.508 0 0 1-1.598 2.337c-1.582.617-3.995.926-7.238.926-3.44 0-6.059-.347-7.858-1.04A2.51 2.51 0 0 1 0 13.044V2.509A2.509 2.509 0 0 1 2.509 0z"/><path id="h" d="M10.677 14.311c-.456 0-.89-.224-1.19-.614a.438.438 0 0 1 .034-.564.326.326 0 0 1 .499.04.836.836 0 0 0 .656.339.83.83 0 0 0 .655-.337.326.326 0 0 1 .5-.038.438.438 0 0 1 .034.564c-.3.388-.732.61-1.188.61z"/><path id="j" d="M2.509 0h13.283a2.51 2.51 0 0 1 2.509 2.509v10.653a2.508 2.508 0 0 1-1.598 2.337c-1.582.617-3.995.926-7.238.926-3.44 0-6.059-.347-7.858-1.04A2.51 2.51 0 0 1 0 13.044V2.509A2.509 2.509 0 0 1 2.509 0z"/><path id="p" d="m7.926 7.76 12.344.712a1.634 1.634 0 0 1 1.535 1.77 1.726 1.726 0 0 1-1.818 1.577l-6.29-.363-6.054-.35A1.634 1.634 0 0 1 6.105 9.38c0-.015.002-.03.003-.044a1.726 1.726 0 0 1 1.818-1.577z"/><radialGradient id="i" cx="50%" cy="50%" r="136.8%" fx="50%" fy="50%" gradientTransform="matrix(.5 0 0 1 .25 0)"><stop offset="0%" stop-color="#21C8F6"/><stop offset="100%" stop-color="#4BDEFF"/></radialGradient><radialGradient id="q" cx="50%" cy="50%" r="257.024%" fx="50%" fy="50%" gradientTransform="matrix(.26612 0 0 1 .367 0)"><stop offset="0%" stop-color="#21C8F6"/><stop offset="100%" stop-color="#4BDEFF"/></radialGradient><ellipse id="r" cx="5.246" cy="5.223" rx="5.246" ry="5.223"/><ellipse id="v" cx="5.246" cy="5.223" rx="5.246" ry="5.223"/><filter id="g" width="374.3%" height="648.7%" x="-137.2%" y="-195.9%" filterUnits="objectBoundingBox"><feOffset dy="1" in="SourceAlpha" result="shadowOffsetOuter1"/><feGaussianBlur in="shadowOffsetOuter1" result="shadowBlurOuter1" stdDeviation="1"/><feColorMatrix in="shadowBlurOuter1" values="0 0 0 0 0.137254902 0 0 0 0 0.788235294 0 0 0 0 0.968627451 0 0 0 1 0"/></filter><filter id="o" width="142.1%" height="260.2%" x="-21.1%" y="-56.6%" filterUnits="objectBoundingBox"><feOffset dy="1" in="SourceAlpha" result="shadowOffsetOuter1"/><feGaussianBlur in="shadowOffsetOuter1" result="shadowBlurOuter1" stdDeviation="1"/><feColorMatrix in="shadowBlurOuter1" values="0 0 0 0 0.137254902 0 0 0 0 0.788235294 0 0 0 0 0.968627451 0 0 0 1 0"/></filter></defs><g fill="none" fill-rule="evenodd"><path fill="url(#a)" d="M8.175 0h11.813a5.375 5.375 0 0 1 5.375 5.375v12.436a6.45 6.45 0 0 1-6.45 6.45H9.25a6.449 6.449 0 0 1-6.45-6.45V5.375A5.374 5.374 0 0 1 8.174 0z" transform="rotate(-5 39.404 -20.856)"/><path fill="url(#b)" fill-rule="nonzero" d="M8.175 0h11.813a5.375 5.375 0 0 1 5.375 5.375v12.436a6.45 6.45 0 0 1-6.45 6.45H9.25a6.449 6.449 0 0 1-6.45-6.45V5.375A5.374 5.374 0 0 1 8.174 0z" transform="rotate(-5 39.404 -20.856)"/><path fill="#222" fill-opacity=".468" d="M6.022 17.977a6.45 6.45 0 0 0 6.988 5.863l10.027-.877a6.45 6.45 0 0 0 5.863-6.987l.254 2.902a6.45 6.45 0 0 1-5.863 6.987l-10.027.877a6.45 6.45 0 0 1-6.988-5.863z" opacity=".405"/><g transform="rotate(-5 78.238 -80.08)"><use fill="#1B283E" xlink:href="#c"/><mask id="f" fill="#fff"><use xlink:href="#d"/></mask><use fill="url(#e)" fill-rule="nonzero" xlink:href="#d"/><g fill-rule="nonzero" mask="url(#f)" transform="rotate(-7 10.676 13.673)"><use fill="#000" filter="url(#g)" xlink:href="#h"/><use fill="url(#i)" xlink:href="#h"/></g><mask id="m" fill="#fff"><use xlink:href="#j"/></mask><path stroke="url(#k)" stroke-width=".5" d="M15.792.25a2.25 2.25 0 0 1 1.597.662c.409.408.662.973.662 1.597v10.653a2.259 2.259 0 0 1-1.439 2.105c-1.562.609-3.945.908-7.147.908-3.4 0-5.99-.338-7.769-1.024A2.258 2.258 0 0 1 .25 13.044V2.509c0-.624.253-1.189.662-1.597C1.32.502 1.885.25 2.509.25z"/><ellipse cx="5.152" cy="3.068" fill="url(#l)" mask="url(#m)" opacity=".778" rx="10.126" ry="10.288"/></g><path fill="url(#n)" d="m7.926 7.76 12.344.712a1.634 1.634 0 0 1 1.535 1.77 1.726 1.726 0 0 1-1.818 1.577l-6.29-.363-6.054-.35A1.634 1.634 0 0 1 6.105 9.38c0-.015.002-.03.003-.044a1.726 1.726 0 0 1 1.818-1.577z" transform="rotate(-9 28.69 -6.744)"/><g fill-rule="nonzero" transform="rotate(-9 28.69 -6.744)"><use fill="#000" filter="url(#o)" xlink:href="#p"/><use fill="url(#q)" xlink:href="#p"/></g><path d="m18.626 4.47-.569.05a.286.286 0 0 1-.307-.262.286.286 0 0 1 .257-.313l.569-.05a.286.286 0 0 1 .307.263c.014.16-.101.3-.257.313zm.993-.884-.569.05a.287.287 0 0 1-.307-.263A.286.286 0 0 1 19 3.06l.568-.05a.287.287 0 0 1 .308.265.286.286 0 0 1-.257.311zm2.971.537-3.115.273a.288.288 0 0 1-.31-.263.286.286 0 0 1 .26-.312l3.113-.272a.286.286 0 0 1 .309.262c.014.16-.101.3-.259.314h.002zm.98-.882-3.091.27a.293.293 0 0 1-.32-.262.293.293 0 0 1 .27-.314l3.09-.27a.293.293 0 0 1 .32.263.292.292 0 0 1-.27.313z" fill="#243552"/><g transform="rotate(-6 86.166 -38.633)"><mask id="u" fill="#fff"><use xlink:href="#r"/></mask><use fill="url(#s)" opacity=".157" xlink:href="#r"/><path fill="url(#t)" d="M4.992.56 1.018 8.132l3.151 1.992 4.017-8.502z" mask="url(#u)" opacity=".2"/></g><g transform="rotate(-6 79.37 -168.309)"><mask id="w" fill="#fff"><use xlink:href="#v"/></mask><use fill="url(#s)" opacity=".157" xlink:href="#v"/><path fill="url(#t)" d="M4.964.56.991 8.132l3.151 1.992 4.016-8.502z" mask="url(#w)" opacity=".2"/></g><path fill="#1B283E" stroke="#1B283E" stroke-width=".5" d="M24.195 16.945c-2.666.28-5.053-1.64-5.331-4.286-.279-2.648 1.657-5.02 4.323-5.301 2.666-.28 5.053 1.638 5.332 4.286.278 2.647-1.658 5.02-4.324 5.301zm-13.48 1.417c-2.666.28-5.053-1.64-5.33-4.286-.28-2.649 1.656-5.021 4.323-5.301 2.665-.28 5.053 1.638 5.33 4.286.279 2.646-1.656 5.02-4.323 5.3zm17.769-9.687c-.451-.42-1.28-.939-1.774-1.232a5.396 5.396 0 0 0-.393-.229l-.01-.005.001.002a5.61 5.61 0 0 0-3.201-.609 5.619 5.619 0 0 0-3.786 2.048c-.442.506-.812 1.049-1.197 1.582-.488.676-.847.407-1.4.465s-.848.396-1.466-.164c-.489-.441-.963-.894-1.501-1.298a5.657 5.657 0 0 0-4.146-1.214c-1.148.12-2.247.584-3.021 1.262V9.28l.009.005c-.117.098-.22.199-.329.305-.422.39-1.144 1.071-1.5 1.575-.526.752-1.83.935-1.83.935l.148 1.42s.78-.128 1.064.142c.168.16.419.988.775 1.844.113.307.26.6.422.876.155.276.327.529.514.732l.002-.002a5.623 5.623 0 0 0 4.929 2.006 5.622 5.622 0 0 0 4.748-3.796l.003-.006.011-.023c.33-.718.54-2.612.691-2.925.153-.318.612-.39.612-.39s.463-.024.678.254c.214.275.812 2.084 1.284 2.718l.015.02.005.005a5.622 5.622 0 0 0 5.434 2.726 5.62 5.62 0 0 0 4.401-2.986l.002.001a3.8 3.8 0 0 0 .348-.822c.101-.305.178-.62.225-.944.17-.912.23-1.773.36-1.964.223-.325.987-.358.987-.358l-.15-1.42s-1.293.09-1.964-.533z"/><path fill="#111B2C" stroke="#111B2C" stroke-width=".5" d="M24.195 16.945c-2.666.28-5.053-1.64-5.331-4.286-.279-2.648 1.657-5.02 4.323-5.301 2.666-.28 5.053 1.638 5.332 4.286.278 2.647-1.658 5.02-4.324 5.301zm-13.48 1.417c-2.666.28-5.053-1.64-5.33-4.286-.28-2.649 1.656-5.021 4.323-5.301 2.665-.28 5.053 1.638 5.33 4.286.279 2.646-1.656 5.02-4.323 5.3zm17.769-9.687c-.451-.42-1.28-.939-1.774-1.232a5.396 5.396 0 0 0-.393-.229l-.01-.005.001.002a5.61 5.61 0 0 0-3.201-.609 5.619 5.619 0 0 0-3.786 2.048c-.442.506-.812 1.049-1.197 1.582-.488.676-.847.407-1.4.465s-.848.396-1.466-.164c-.489-.441-.963-.894-1.501-1.298a5.657 5.657 0 0 0-4.146-1.214c-1.148.12-2.247.584-3.021 1.262V9.28l.009.005c-.117.098-.22.199-.329.305-.422.39-1.144 1.071-1.5 1.575-.526.752-1.83.935-1.83.935l.148 1.42s.78-.128 1.064.142c.168.16.419.988.775 1.844.113.307.26.6.422.876.155.276.327.529.514.732l.002-.002a5.623 5.623 0 0 0 4.929 2.006 5.622 5.622 0 0 0 4.748-3.796l.003-.006.011-.023c.33-.718.54-2.612.691-2.925.153-.318.612-.39.612-.39s.463-.024.678.254c.214.275.812 2.084 1.284 2.718l.015.02.005.005a5.622 5.622 0 0 0 5.434 2.726 5.62 5.62 0 0 0 4.401-2.986l.002.001a3.8 3.8 0 0 0 .348-.822c.101-.305.178-.62.225-.944.17-.912.23-1.773.36-1.964.223-.325.987-.358.987-.358l-.15-1.42s-1.293.09-1.964-.533z"/></g></svg>