<svg xmlns="http://www.w3.org/2000/svg" xmlns:xlink="http://www.w3.org/1999/xlink" width="145" height="144"><defs><linearGradient id="a" x1="1.259%" x2="98.741%" y1="48.741%" y2="48.741%"><stop offset="0%" stop-color="#21C8F6"/><stop offset="100%" stop-color="#637BFF"/></linearGradient><linearGradient id="b" x1="98.922%" x2=".766%" y1="49.992%" y2="50.008%"><stop offset="0%" stop-color="#21C8F6"/><stop offset="100%" stop-color="#637BFF"/></linearGradient><linearGradient id="c" x1="1.259%" x2="98.741%" y1="48.741%" y2="48.741%"><stop offset="0%" stop-color="#21C8F6"/><stop offset="100%" stop-color="#637BFF"/></linearGradient><linearGradient id="d" x1="94.118%" x2="50.529%" y1="34.137%" y2="65.861%"><stop offset="0%" stop-color="#5B79A2"/><stop offset="100%" stop-color="#2E4469"/></linearGradient><linearGradient id="e" x1="17.242%" x2="54.957%" y1="26.931%" y2="65.863%"><stop offset="0%" stop-color="#00BAFF"/><stop offset="100%" stop-color="#83234B" stop-opacity="0"/></linearGradient><linearGradient id="f" x1="-17.84%" x2="92.395%" y1="34.137%" y2="68.637%"><stop offset="0%" stop-color="#00BAFF"/><stop offset="100%" stop-color="#83234B" stop-opacity="0"/></linearGradient><linearGradient id="i" x1="45.454%" x2="56.284%" y1="2.256%" y2="100%"><stop offset="0%" stop-color="#2B3E5B"/><stop offset="100%" stop-color="#253652"/></linearGradient><linearGradient id="j" x1="50%" x2="50%" y1="149.484%" y2="0%"><stop offset="0%" stop-color="#5B79A2"/><stop offset="100%" stop-color="#2E4469"/></linearGradient><linearGradient id="l" x1="46.443%" x2="54.917%" y1="2.256%" y2="100%"><stop offset="0%" stop-color="#2B3E5B"/><stop offset="100%" stop-color="#253652"/></linearGradient><linearGradient id="s" x1=".008%" x2="99.992%" y1="50.124%" y2="49.876%"><stop offset="0%" stop-color="#6F90BC"/><stop offset="100%" stop-color="#2E4469"/></linearGradient><linearGradient id="t" x1="38.02%" x2="80.028%" y1="51.115%" y2="46.641%"><stop offset="0%" stop-color="#1B283E"/><stop offset="100%" stop-color="#688AB8"/></linearGradient><linearGradient id="v" x1="-2.626%" x2="39.996%" y1="46.456%" y2="53.44%"><stop offset="0%" stop-color="#00BAFF"/><stop offset="100%" stop-color="#83234B" stop-opacity="0"/></linearGradient><linearGradient id="w" x1="100%" x2="0%" y1="50%" y2="50%"><stop offset="0%" stop-color="#00C9FF"/><stop offset="100%" stop-color="#2B7DBD" stop-opacity="0"/></linearGradient><linearGradient id="x" x1="100%" x2="0%" y1="50%" y2="50%"><stop offset="0%" stop-color="#00C9FF"/><stop offset="100%" stop-color="#2B7DBD" stop-opacity="0"/></linearGradient><linearGradient id="y" x1="75.874%" x2="92.229%" y1="34.514%" y2="95.76%"><stop offset="0%" stop-color="#5B79A2"/><stop offset="100%" stop-color="#2E4469"/></linearGradient><linearGradient id="H" x1="77.322%" x2="6.752%" y1="0%" y2="146.499%"><stop offset="0%" stop-color="#85A1C6"/><stop offset="100%" stop-color="#1B283E"/></linearGradient><linearGradient id="I" x1="-17.071%" x2="167.986%" y1="-26.592%" y2="175.689%"><stop offset="0%" stop-color="#00BAFF"/><stop offset="100%" stop-color="#83234B" stop-opacity="0"/></linearGradient><linearGradient id="L" x1="8.307%" x2="109.293%" y1="21.46%" y2="103.145%"><stop offset="0%" stop-color="#233249"/><stop offset="100%" stop-color="#0F1723"/></linearGradient><linearGradient id="R" x1="154.902%" x2="24.379%" y1="138.188%" y2="14.184%"><stop offset="0%" stop-color="#76E1FF"/><stop offset="100%" stop-color="#637BFF" stop-opacity="0"/></linearGradient><linearGradient id="S" x1="13.96%" x2="105.629%" y1=".616%" y2="98.781%"><stop offset="0%" stop-color="#587CB9"/><stop offset="100%" stop-color="#2E4469" stop-opacity="0"/></linearGradient><linearGradient id="U" x1="98.645%" x2="1.4%" y1="50.843%" y2="48.979%"><stop offset="0%" stop-color="#21C8F6"/><stop offset="100%" stop-color="#637BFF"/></linearGradient><linearGradient id="Z" x1="98.741%" x2="1.259%" y1="48.741%" y2="48.741%"><stop offset="0%" stop-color="#21C8F6"/><stop offset="100%" stop-color="#637BFF"/></linearGradient><linearGradient id="aa" x1="98.741%" x2="1.259%" y1="48.741%" y2="48.741%"><stop offset="0%" stop-color="#21C8F6"/><stop offset="100%" stop-color="#637BFF"/></linearGradient><radialGradient id="g" cx="52.436%" cy="42.955%" r="36.114%" fx="52.436%" fy="42.955%" gradientTransform="matrix(-1 0 0 -.21028 1.049 .52)"><stop offset="0%" stop-color="#172743"/><stop offset="100%" stop-opacity="0"/></radialGradient><radialGradient id="o" cx="50%" cy="50%" r="652.086%" fx="50%" fy="50%" gradientTransform="matrix(.1049 0 0 1 .448 0)"><stop offset="0%" stop-color="#21C8F6"/><stop offset="100%" stop-color="#4BDEFF"/></radialGradient><radialGradient id="r" cx="50%" cy="50%" r="920.593%" fx="50%" fy="50%" gradientTransform="matrix(.0743 0 0 1 .463 0)"><stop offset="0%" stop-color="#21C8F6"/><stop offset="100%" stop-color="#4BDEFF"/></radialGradient><radialGradient id="u" cx="12.668%" cy="-20.667%" r="288.299%" fx="12.668%" fy="-20.667%" gradientTransform="matrix(.15715 .54202 -.1113 .92285 .084 -.085)"><stop offset="0%" stop-color="#00BAFF"/><stop offset="100%" stop-color="#83234B" stop-opacity="0"/></radialGradient><radialGradient id="z" cx="52.436%" cy="42.955%" r="157.336%" fx="52.436%" fy="42.955%" gradientTransform="matrix(-.22953 0 0 -.21136 .645 .52)"><stop offset="0%" stop-color="#172743"/><stop offset="100%" stop-opacity="0"/></radialGradient><radialGradient id="D" cx="50%" cy="50%" r="68.353%" fx="50%" fy="50%" gradientTransform="matrix(0 1 -.9947 0 .997 0)"><stop offset="0%" stop-color="#21C8F6"/><stop offset="100%" stop-color="#4BDEFF"/></radialGradient><radialGradient id="G" cx="50%" cy="50%" r="102.912%" fx="50%" fy="50%" gradientTransform="matrix(0 .9893 -1.93068 0 1.465 .005)"><stop offset="0%" stop-color="#FFF"/><stop offset="100%" stop-color="#C42E6C"/></radialGradient><radialGradient id="P" cx="50%" cy="50%" r="136.8%" fx="50%" fy="50%" gradientTransform="matrix(.5 0 0 1 .25 0)"><stop offset="0%" stop-color="#21C8F6"/><stop offset="100%" stop-color="#4BDEFF"/></radialGradient><radialGradient id="X" cx="50%" cy="50%" r="257.024%" fx="50%" fy="50%" gradientTransform="matrix(.26612 0 0 1 .367 0)"><stop offset="0%" stop-color="#21C8F6"/><stop offset="100%" stop-color="#4BDEFF"/></radialGradient><radialGradient id="ae" cx="50%" cy="50%" r="47.033%" fx="50%" fy="50%" gradientTransform="matrix(0 -1 .97953 0 .01 1)"><stop offset="0%"/><stop offset="100%" stop-opacity="0"/></radialGradient><filter id="h" width="100%" height="100%" x="0%" y="0%" filterUnits="objectBoundingBox"><feGaussianBlur in="SourceGraphic"/></filter><filter id="k" width="100%" height="100%" x="0%" y="0%" filterUnits="objectBoundingBox"><feGaussianBlur in="SourceGraphic"/></filter><filter id="m" width="183.4%" height="894.8%" x="-41.7%" y="-317.9%" filterUnits="objectBoundingBox"><feOffset dy="2" in="SourceAlpha" result="shadowOffsetOuter1"/><feGaussianBlur in="shadowOffsetOuter1" result="shadowBlurOuter1" stdDeviation="3"/><feColorMatrix in="shadowBlurOuter1" values="0 0 0 0 0.137254902 0 0 0 0 0.788235294 0 0 0 0 0.968627451 0 0 0 1 0"/></filter><filter id="p" width="159.1%" height="894.8%" x="-29.5%" y="-317.9%" filterUnits="objectBoundingBox"><feOffset dy="2" in="SourceAlpha" result="shadowOffsetOuter1"/><feGaussianBlur in="shadowOffsetOuter1" result="shadowBlurOuter1" stdDeviation="3"/><feColorMatrix in="shadowBlurOuter1" values="0 0 0 0 0.137254902 0 0 0 0 0.788235294 0 0 0 0 0.968627451 0 0 0 1 0"/></filter><filter id="A" width="131.9%" height="239.2%" x="-16%" y="-69.6%" filterUnits="objectBoundingBox"><feGaussianBlur in="SourceGraphic" stdDeviation="1.882"/></filter><filter id="B" width="144%" height="144.2%" x="-22%" y="-22.1%" filterUnits="objectBoundingBox"><feGaussianBlur in="SourceGraphic" stdDeviation="3.227"/></filter><filter id="C" width="179.1%" height="179.5%" x="-39.6%" y="-39.8%" filterUnits="objectBoundingBox"><feGaussianBlur in="SourceGraphic" stdDeviation="3.227"/></filter><filter id="E" width="166.4%" height="165.7%" x="-33.2%" y="-32.8%" filterUnits="objectBoundingBox"><feOffset in="SourceAlpha" result="shadowOffsetOuter1"/><feGaussianBlur in="shadowOffsetOuter1" result="shadowBlurOuter1" stdDeviation="1"/><feColorMatrix in="shadowBlurOuter1" values="0 0 0 0 0.951002038 0 0 0 0 0.370524746 0 0 0 0 0.61045536 0 0 0 1 0"/></filter><filter id="N" width="413.5%" height="727%" x="-156.8%" y="-250.8%" filterUnits="objectBoundingBox"><feOffset dy="2" in="SourceAlpha" result="shadowOffsetOuter1"/><feGaussianBlur in="shadowOffsetOuter1" result="shadowBlurOuter1" stdDeviation="3"/><feColorMatrix in="shadowBlurOuter1" values="0 0 0 0 0.137254902 0 0 0 0 0.788235294 0 0 0 0 0.968627451 0 0 0 1 0"/></filter><filter id="V" width="148.4%" height="283.7%" x="-24.2%" y="-73%" filterUnits="objectBoundingBox"><feOffset dy="2" in="SourceAlpha" result="shadowOffsetOuter1"/><feGaussianBlur in="shadowOffsetOuter1" result="shadowBlurOuter1" stdDeviation="3"/><feColorMatrix in="shadowBlurOuter1" values="0 0 0 0 0.137254902 0 0 0 0 0.788235294 0 0 0 0 0.968627451 0 0 0 1 0"/></filter><path id="n" d="m38.378 58.84 21.479.004a1.256 1.256 0 1 1 0 2.512l-10.92-.003-10.559-.002a1.256 1.256 0 0 1 0-2.511z"/><path id="q" d="m39.04 68.036 31.357.005a1.256 1.256 0 1 1 0 2.511l-15.934-.002-15.423-.002a1.256 1.256 0 0 1 0-2.512z"/><path id="F" d="M9.038 3.978V2.213l-.654.374-.904.518v1.766l1.558-.893zm-1.87 3.195V5.406l-.889.505-2.54 1.441v1.784l3.43-1.963zM0 1.16v6.013l3.428 1.963V7.353l-1.79-1.009h-.002l-.017-.013-.015-.011-.013-.017-.012-.015-.008-.02c-.003-.006-.006-.011-.007-.018l-.004-.022-.002-.018V2.052l-.904-.517L0 1.16zM1.714 0 .156.892l1.558.892L3.272.892 1.714 0zm.81 5.567.904-.518V1.16l-.654.375-.904.517v3.89l.654-.375zm4.8-4.514-1.558.892 1.558.892 1.558-.893-1.558-.891zm-.156 2.052-.904-.518-.654-.374v1.765l.904.518.654.375V3.105zm-3.584 3.98 2.285-1.298 1.142-.648-1.557-.892-1.792 1.026-1.634.936 1.556.875z"/><path id="J" d="M6.271 0h33.21a6.27 6.27 0 0 1 6.27 6.271v26.635a6.27 6.27 0 0 1-3.993 5.842c-3.955 1.543-9.988 2.314-18.096 2.314-8.598 0-15.146-.867-19.646-2.6A6.276 6.276 0 0 1 0 32.608V6.271A6.271 6.271 0 0 1 6.271 0z"/><path id="K" d="M6.271 0h33.21a6.27 6.27 0 0 1 6.27 6.271v26.635a6.27 6.27 0 0 1-3.993 5.842c-3.955 1.543-9.988 2.314-18.096 2.314-8.598 0-15.146-.867-19.646-2.6A6.276 6.276 0 0 1 0 32.608V6.271A6.271 6.271 0 0 1 6.271 0z"/><path id="O" d="M26.693 35.778c-1.14-.002-2.223-.561-2.974-1.535-.322-.417-.284-1.048.084-1.41.367-.362.925-.318 1.247.099.414.537 1.012.846 1.64.847.628.001 1.225-.306 1.639-.842.32-.416.878-.458 1.246-.095.369.363.408.994.088 1.41-.749.971-1.831 1.527-2.97 1.526z"/><path id="Q" d="M6.271 0h33.21a6.27 6.27 0 0 1 6.27 6.271v26.635a6.27 6.27 0 0 1-3.993 5.842c-3.955 1.543-9.988 2.314-18.096 2.314-8.598 0-15.146-.867-19.646-2.6A6.276 6.276 0 0 1 0 32.608V6.271A6.271 6.271 0 0 1 6.271 0z"/><path id="W" d="m19.816 19.398 30.86 1.781a4.087 4.087 0 0 1 3.845 4.316l-.008.11a4.314 4.314 0 0 1-4.546 3.942l-15.726-.908-15.134-.874a4.087 4.087 0 0 1-3.845-4.316l.008-.11a4.311 4.311 0 0 1 4.546-3.94z"/><ellipse id="Y" cx="13.115" cy="13.058" rx="13.115" ry="13.058"/><ellipse id="ac" cx="13.115" cy="13.058" rx="13.115" ry="13.058"/></defs><g fill="none" fill-rule="evenodd"><g transform="translate(11 39.086)"><g transform="translate(81.19 70.255)"><ellipse cx="1.842" cy="1.832" fill="#1B283E" rx="1.842" ry="1.832"/><ellipse cx="1.842" cy="1.832" fill="url(#a)" rx="1.228" ry="1.221"/></g><path stroke="url(#b)" stroke-linecap="round" stroke-linejoin="round" stroke-width=".75" d="M.141 2.035h22.388" transform="translate(81.05 59.366)"/><g transform="translate(0 59.366)"><g fill="#1B283E" transform="translate(39.428 .05)"><rect width="1" height="12.822" x="6.446" rx=".5"/><rect width="1" height="12.822" x="2.149" rx=".5"/><rect width="1" height="12.822" x="10.743" rx=".5"/><rect width="1" height="12.822" rx=".5"/><rect width="1" height="12.822" x="8.594" rx=".5"/><rect width="1" height="12.822" x="4.297" rx=".5"/><rect width="1" height="12.822" x="12.891" rx=".5"/></g><circle cx="26.076" cy="1.883" r="1" fill="url(#c)"/><circle cx="28.532" cy="1.883" r="1" fill="url(#c)"/><circle cx="30.987" cy="1.883" r="1" fill="url(#c)"/></g><path fill="#1B283E" d="m23.564 27.485 76.472-.178a8.217 8.217 0 0 1 8.171 9.241l-4.866 38.721c-1.032 8.209-8.004 14.37-16.277 14.384l-49.639.083a16.434 16.434 0 0 1-16.286-14.05l-5.684-38.794a8.216 8.216 0 0 1 8.11-9.407z"/><path fill="url(#d)" d="m21.355 27.52 80.97-1.405a8.215 8.215 0 0 1 8.245 9.578l-5.384 32.003a16.43 16.43 0 0 1-15.883 13.703l-52.837 1.034a16.433 16.433 0 0 1-16.414-13.102l-6.6-31.933a8.217 8.217 0 0 1 7.903-9.878z" transform="rotate(1 61.828 54.322)"/><path fill="url(#e)" fill-rule="nonzero" d="m21.355 27.52 80.97-1.405a8.215 8.215 0 0 1 8.245 9.578l-5.384 32.003a16.43 16.43 0 0 1-15.883 13.703l-52.837 1.034a16.433 16.433 0 0 1-16.414-13.102l-6.6-31.933a8.217 8.217 0 0 1 7.903-9.878z" transform="rotate(1 61.828 54.322)"/><path fill="url(#f)" fill-rule="nonzero" d="m21.355 27.52 80.97-1.405a8.215 8.215 0 0 1 8.245 9.578l-5.384 32.003a16.43 16.43 0 0 1-15.883 13.703l-52.837 1.034a16.433 16.433 0 0 1-16.414-13.102l-6.6-31.933a8.217 8.217 0 0 1 7.903-9.878z" transform="rotate(1 61.828 54.322)"/><g transform="rotate(1 -2141.423 5902.246)"><ellipse cx="6.366" cy="6.332" fill="url(#g)" filter="url(#h)" opacity=".899" rx="5.41" ry="5.438" transform="rotate(-81 6.366 6.332)"/><path stroke="url(#i)" stroke-width="3.105" d="M5.007 3.186C-3.2 3.71 1.822 11.348.837 18.31c-.87 6.17 3.608 8.59 8.182 8.466" transform="scale(-1 1) rotate(-8 19.986 113.624)"/><g transform="scale(-1 1) rotate(82 -4.585 -2.268)"><rect width="3.885" height="4.057" x="1.457" y="1.352" fill="#1B283E" rx="1.942"/><rect width="6.798" height="2.705" fill="url(#j)" rx="1.352"/></g></g><g transform="scale(-1 1) rotate(1 -2172.21 -1300.053)"><ellipse cx="6.366" cy="6.332" fill="url(#g)" filter="url(#k)" opacity=".899" rx="5.41" ry="5.438" transform="rotate(-81 6.366 6.332)"/><path stroke="url(#l)" stroke-width="3.105" d="M5.007 3.186C-3.2 3.71 1.822 11.348.837 18.31c-.87 6.17 2.278 9.25 7.22 8.537" transform="scale(-1 1) rotate(-8 19.986 113.624)"/><g transform="scale(-1 1) rotate(82 -4.585 -2.268)"><rect width="3.885" height="4.057" x="1.457" y="1.352" fill="#1B283E" rx="1.942"/><rect width="6.798" height="2.705" fill="url(#j)" rx="1.352"/></g></g><path fill="#1B283E" d="m38.378 54.241 47.169.004a1.256 1.256 0 0 1 0 2.512l-23.96-.002-23.21-.002a1.256 1.256 0 0 1 .001-2.512zm0 4.599 47.17.004a1.255 1.255 0 0 1 0 2.512l-23.96-.003-23.21-.002a1.256 1.256 0 0 1 0-2.512z"/><g fill-rule="nonzero"><use fill="#000" filter="url(#m)" xlink:href="#n"/><use fill="url(#o)" xlink:href="#n"/></g><path fill="#1B283E" d="m39.04 63.438 47.169.004a1.256 1.256 0 0 1 0 2.512l-23.96-.002-23.21-.002a1.256 1.256 0 0 1 .001-2.512zm0 4.598 47.17.005a1.255 1.255 0 0 1 0 2.511l-23.96-.002-23.21-.002a1.256 1.256 0 0 1 0-2.512z"/><g fill-rule="nonzero"><use fill="#000" filter="url(#p)" xlink:href="#q"/><use fill="url(#r)" xlink:href="#q"/></g><path fill="url(#s)" d="m20.488 27.268 84.15-1.09a6.184 6.184 0 0 1 5.483 9.193l-.569 1.02a16.434 16.434 0 0 1-14.142 8.434l-65.093.843a16.43 16.43 0 0 1-14.222-7.844l-.752-1.226a6.128 6.128 0 0 1 5.145-9.33z" transform="rotate(1 62.514 35.914)"/><path fill="url(#t)" d="m20.488 27.268 84.15-1.09a6.184 6.184 0 0 1 5.483 9.193l-.569 1.02a16.434 16.434 0 0 1-14.142 8.434l-65.093.843a16.43 16.43 0 0 1-14.222-7.844l-.752-1.226a6.128 6.128 0 0 1 5.145-9.33z" opacity=".504" transform="rotate(1 62.514 35.914)"/><path fill="url(#u)" fill-rule="nonzero" d="m20.488 27.268 84.15-1.09a6.184 6.184 0 0 1 5.483 9.193l-.569 1.02a16.434 16.434 0 0 1-14.142 8.434l-65.093.843a16.43 16.43 0 0 1-14.222-7.844l-.752-1.226a6.128 6.128 0 0 1 5.145-9.33z" transform="rotate(1 62.514 35.914)"/><path fill="url(#v)" fill-rule="nonzero" d="m20.488 27.268 84.15-1.09a6.184 6.184 0 0 1 5.483 9.193l-.569 1.02a16.434 16.434 0 0 1-14.142 8.434l-65.093.843a16.43 16.43 0 0 1-14.222-7.844l-.752-1.226a6.128 6.128 0 0 1 5.145-9.33z" transform="rotate(1 62.514 35.914)"/><path stroke="url(#w)" stroke-linecap="round" stroke-linejoin="round" stroke-width=".988" d="M62.798 45.746H28.93"/><path stroke="url(#x)" stroke-linecap="round" stroke-linejoin="round" stroke-width=".988" d="M87.867 45.746H63.034" transform="matrix(-1 0 0 1 150.9 0)"/><path fill="#000" d="m55.101 27.556 16.168.002c2.28 0 4.457.948 6.01 2.616l2.454 2.633a3.121 3.121 0 0 1-2.284 5.249l-28.528-.003a3.121 3.121 0 0 1-2.284-5.249l2.452-2.632a8.218 8.218 0 0 1 6.012-2.616z" opacity=".535"/><path fill="url(#y)" d="M56.51 8.829h14.174c3.53 0 6.39 2.86 6.39 6.39v15.744a3.652 3.652 0 0 1-3.651 3.652H53.77a3.652 3.652 0 0 1-3.651-3.652V15.22c0-3.53 2.86-6.39 6.39-6.39z"/><ellipse cx="63.308" cy="22.274" fill="#1B283E" rx="9.517" ry="9.466"/><ellipse cx="62.278" cy="11.634" fill="url(#z)" filter="url(#A)" opacity=".65" rx="17.675" ry="4.057"/><g transform="translate(40.727 .076)"><ellipse fill="#92BAE9" opacity=".136" style="mix-blend-mode:overlay" cx="22.026" cy="21.908" filter="url(#B)" rx="22.026" ry="21.908"/><ellipse cx="22.026" cy="21.908" fill="#328AF1" filter="url(#C)" opacity=".842" rx="12.237" ry="12.171"/><ellipse cx="22.287" cy="22.409" fill="url(#D)" rx="6.526" ry="6.491" transform="scale(1 -1) rotate(4 663.991 0)"/><g transform="translate(18.224 18.127)" style="mix-blend-mode:luminosity"><use fill="#000" filter="url(#E)" xlink:href="#F"/><use fill="url(#G)" xlink:href="#F"/></g><path fill="#FFF" fill-opacity=".547" d="M22.746 16.201c1.74 0 3.298.767 4.353 1.98a5.752 5.752 0 0 0-2.771-.706c-3.179 0-5.755 2.563-5.755 5.724a5.68 5.68 0 0 0 1.402 3.744 5.717 5.717 0 0 1-2.983-5.018c0-3.161 2.576-5.724 5.754-5.724z" style="mix-blend-mode:lighten" opacity=".5" transform="scale(1 -1) rotate(-84 -1.913 0)"/></g></g><path fill="url(#H)" d="M20.436 0H49.97c7.422 0 13.44 6.017 13.44 13.438v31.09c0 8.906-7.22 16.126-16.127 16.126H23.124c-8.906 0-16.126-7.22-16.126-16.126v-31.09C6.998 6.017 13.015 0 20.436 0z" transform="rotate(4 18.99 596.913)"/><path fill="url(#I)" fill-rule="nonzero" d="M20.436 0H49.97c7.422 0 13.44 6.017 13.44 13.438v31.09c0 8.906-7.22 16.126-16.127 16.126H23.124c-8.906 0-16.126-7.22-16.126-16.126v-31.09C6.998 6.017 13.015 0 20.436 0z" transform="rotate(4 18.99 596.913)"/><path fill="#222" fill-opacity=".468" d="M45.978 37.82c-.621 8.886 6.078 16.592 14.962 17.213l25.1 1.755c8.884.622 16.59-6.077 17.211-14.962l-.508 7.264c-.621 8.884-8.327 15.583-17.211 14.962l-25.1-1.755c-8.885-.622-15.583-8.328-14.962-17.212z" opacity=".405"/><g transform="rotate(4 -116.498 771.864)"><use fill="#1B283E" xlink:href="#J"/><mask id="M" fill="#fff"><use xlink:href="#K"/></mask><use fill="url(#L)" fill-rule="nonzero" xlink:href="#K"/><g fill-rule="nonzero" mask="url(#M)" transform="rotate(-7 26.69 34.183)"><use fill="#000" filter="url(#N)" xlink:href="#O"/><use fill="url(#P)" xlink:href="#O"/></g><mask id="T" fill="#fff"><use xlink:href="#Q"/></mask><path stroke="url(#R)" stroke-width=".957" d="M39.48.479c1.6 0 3.048.648 4.096 1.696s1.697 2.497 1.697 4.096v26.635a5.786 5.786 0 0 1-3.689 5.397c-3.917 1.527-9.893 2.28-17.922 2.28-8.52 0-15.013-.85-19.474-2.568A5.787 5.787 0 0 1 .48 32.61V6.271c0-1.6.648-3.048 1.696-4.096S4.672.48 6.271.48z"/><ellipse cx="12.88" cy="7.671" fill="url(#S)" mask="url(#T)" opacity=".778" rx="25.316" ry="25.72"/></g><path fill="url(#U)" d="m19.816 19.398 30.86 1.781a4.087 4.087 0 0 1 3.845 4.316l-.008.11a4.314 4.314 0 0 1-4.546 3.942l-15.726-.908-15.134-.874a4.087 4.087 0 0 1-3.845-4.316l.008-.11a4.311 4.311 0 0 1 4.546-3.94z" transform="translate(39.893 2.504)"/><g fill-rule="nonzero" transform="translate(39.893 2.504)"><use fill="#000" filter="url(#V)" xlink:href="#W"/><use fill="url(#X)" xlink:href="#W"/></g><path d="m82.382 9.399-1.423-.1a.716.716 0 0 1-.656-.77.714.714 0 0 1 .757-.67l1.423.1a.715.715 0 0 1 .655.769.715.715 0 0 1-.756.67zm2.797-1.795-1.424-.1a.715.715 0 0 1-.655-.77.715.715 0 0 1 .756-.67l1.424.1a.715.715 0 0 1 .655.769.715.715 0 0 1-.756.67zm7.126 2.489-7.798-.546a.718.718 0 0 1-.66-.77.716.716 0 0 1 .76-.67l7.796.545a.717.717 0 0 1 .66.77.718.718 0 0 1-.76.67h.002zm2.766-1.798-7.739-.54a.73.73 0 0 1-.688-.773.73.73 0 0 1 .789-.668l7.739.54a.731.731 0 0 1 .688.773.731.731 0 0 1-.789.668z" fill="#243552"/><g transform="rotate(3 -255.063 882.465)"><mask id="ab" fill="#fff"><use xlink:href="#Y"/></mask><use fill="url(#Z)" opacity=".157" xlink:href="#Y"/><path fill="url(#aa)" d="m12.48 1.399-9.935 18.93 7.878 4.981L20.465 4.056z" mask="url(#ab)" opacity=".2"/></g><g transform="rotate(3 -272.053 1531.287)"><mask id="ad" fill="#fff"><use xlink:href="#ac"/></mask><use fill="url(#Z)" opacity=".157" xlink:href="#ac"/><path fill="url(#aa)" d="m12.411 1.399-9.935 18.93 7.879 4.981L20.396 4.056z" mask="url(#ad)" opacity=".2"/></g><path fill="#1B283E" stroke="#1B283E" stroke-width=".928" d="M91.253 42.378c-6.692-.35-11.836-6.022-11.487-12.668.348-6.647 6.056-11.75 12.749-11.398s11.836 6.021 11.487 12.668c-.348 6.646-6.056 11.75-12.749 11.398zm-33.838-1.773c-6.693-.35-11.836-6.023-11.488-12.669.348-6.646 6.056-11.749 12.75-11.398s11.835 6.022 11.487 12.669c-.349 6.646-6.056 11.749-12.75 11.398zm47.663-16.97c-.95-1.213-2.794-2.817-3.9-3.736a13.68 13.68 0 0 0-.88-.717l-.018-.016v.002a14.05 14.05 0 0 0-7.666-2.753 14.055 14.055 0 0 0-10.151 3.577c-1.288 1.076-2.414 2.27-3.575 3.436-1.47 1.478-2.25.675-3.64.602-1.387-.073-2.248.645-3.556-.979-1.031-1.282-2.026-2.586-3.196-3.792a14.16 14.16 0 0 0-9.763-4.62c-2.883-.15-5.778.565-7.955 1.935v-.002l.022.016c-.327.193-.622.403-.93.622-1.196.799-3.247 2.198-4.319 3.305-1.595 1.644-4.888 1.586-4.888 1.586l-.186 3.562s1.973-.012 2.57.769c.352.459.646 2.603 1.192 4.858.16.801.408 1.578.701 2.327.272.742.6 1.433.984 2.007l.004-.003a14.06 14.06 0 0 0 11.385 6.88 14.053 14.053 0 0 0 13.209-7.517l.01-.012.036-.052c1.097-1.645 2.354-6.24 2.851-6.955.502-.722 1.661-.719 1.661-.719s1.155.118 1.578.89c.42.762 1.19 5.464 2.107 7.213l.03.056.01.013a14.051 14.051 0 0 0 12.349 8.856 14.057 14.057 0 0 0 12.04-5.652v.003c.443-.53.833-1.184 1.18-1.894.37-.712.684-1.46.927-2.241.778-2.185 1.26-4.288 1.66-4.71.675-.712 2.573-.498 2.573-.498l.186-3.56s-3.228-.285-4.642-2.087z"/><path fill="#111B2C" stroke="#111B2C" stroke-width=".854" d="M91.253 42.378c-6.692-.35-11.836-6.022-11.487-12.668.348-6.647 6.056-11.75 12.749-11.398s11.836 6.021 11.487 12.668c-.348 6.646-6.056 11.75-12.749 11.398zm-33.838-1.773c-6.693-.35-11.836-6.023-11.488-12.669.348-6.646 6.056-11.749 12.75-11.398s11.835 6.022 11.487 12.669c-.349 6.646-6.056 11.749-12.75 11.398zm47.663-16.97c-.95-1.213-2.794-2.817-3.9-3.736a13.68 13.68 0 0 0-.88-.717l-.018-.016v.002a14.05 14.05 0 0 0-7.666-2.753 14.055 14.055 0 0 0-10.151 3.577c-1.288 1.076-2.414 2.27-3.575 3.436-1.47 1.478-2.25.675-3.64.602-1.387-.073-2.248.645-3.556-.979-1.031-1.282-2.026-2.586-3.196-3.792a14.16 14.16 0 0 0-9.763-4.62c-2.883-.15-5.778.565-7.955 1.935v-.002l.022.016c-.327.193-.622.403-.93.622-1.196.799-3.247 2.198-4.319 3.305-1.595 1.644-4.888 1.586-4.888 1.586l-.186 3.562s1.973-.012 2.57.769c.352.459.646 2.603 1.192 4.858.16.801.408 1.578.701 2.327.272.742.6 1.433.984 2.007l.004-.003a14.06 14.06 0 0 0 11.385 6.88 14.053 14.053 0 0 0 13.209-7.517l.01-.012.036-.052c1.097-1.645 2.354-6.24 2.851-6.955.502-.722 1.661-.719 1.661-.719s1.155.118 1.578.89c.42.762 1.19 5.464 2.107 7.213l.03.056.01.013a14.051 14.051 0 0 0 12.349 8.856 14.057 14.057 0 0 0 12.04-5.652v.003c.443-.53.833-1.184 1.18-1.894.37-.712.684-1.46.927-2.241.778-2.185 1.26-4.288 1.66-4.71.675-.712 2.573-.498 2.573-.498l.186-3.56s-3.228-.285-4.642-2.087z"/><path fill="url(#ae)" d="M72.5 143c40.04 0 72.5-10.521 72.5-23.5s-32.776-31.594-72.817-31.594C32.143 87.906 0 106.521 0 119.5 0 132.479 32.46 143 72.5 143z"/><ellipse cx="72.5" cy="120.5" fill="#F3F4F6" rx="72.5" ry="23.5"/></g></svg>